<?xml version="1.0" encoding="UTF-8" standalone="no"?>
<svg
   xmlns:osb="http://www.openswatchbook.org/uri/2009/osb"
   xmlns:dc="http://purl.org/dc/elements/1.1/"
   xmlns:cc="http://creativecommons.org/ns#"
   xmlns:rdf="http://www.w3.org/1999/02/22-rdf-syntax-ns#"
   xmlns:svg="http://www.w3.org/2000/svg"
   xmlns="http://www.w3.org/2000/svg"
   xmlns:sodipodi="http://sodipodi.sourceforge.net/DTD/sodipodi-0.dtd"
   xmlns:inkscape="http://www.inkscape.org/namespaces/inkscape"
   inkscape:version="1.0 (4035a4fb49, 2020-05-01)"
   sodipodi:docname="logo.svg"
   id="svg8"
   version="1.1"
   viewBox="0 0 210 297"
   height="297mm"
   width="210mm">
  <defs
     id="defs2">
    <linearGradient
       osb:paint="solid"
       id="linearGradient861">
      <stop
         id="stop859"
         offset="0"
         style="stop-color:#000000;stop-opacity:1;" />
    </linearGradient>
  </defs>
  <sodipodi:namedview
     inkscape:window-maximized="1"
     inkscape:window-y="28"
     inkscape:window-x="0"
     inkscape:window-height="1024"
     inkscape:window-width="1920"
     inkscape:snap-object-midpoints="true"
     showgrid="false"
     inkscape:document-rotation="0"
     inkscape:current-layer="layer1"
     inkscape:document-units="mm"
     inkscape:cy="560"
     inkscape:cx="139.28571"
     inkscape:zoom="0.7"
     inkscape:pageshadow="2"
     inkscape:pageopacity="0.0"
     borderopacity="1.0"
     bordercolor="#666666"
     pagecolor="#ffffff"
     id="base" />
  <metadata
     id="metadata5">
    <rdf:RDF>
      <cc:Work
         rdf:about="">
        <dc:format>image/svg+xml</dc:format>
        <dc:type
           rdf:resource="http://purl.org/dc/dcmitype/StillImage" />
      </cc:Work>
    </rdf:RDF>
  </metadata>
  <g
     id="layer1"
     inkscape:groupmode="layer"
     inkscape:label="Layer 1">
    <path
       d="m 104.49595,34.981318 a 37.499999,37.499999 0 0 0 -37.397205,37.500035 37.499999,37.499999 0 0 0 37.500035,37.499957 37.499999,37.499999 0 0 0 37.50004,-37.499957 37.499999,37.499999 0 0 0 -37.50004,-37.500035 37.499999,37.499999 0 0 0 -0.10283,0 z m 0.52296,10.262938 a 27.5,27.5 0 0 1 0.10025,0 27.5,27.5 0 0 1 27.49962,27.50013 27.5,27.5 0 0 1 -27.49962,27.499534 27.5,27.5 0 0 1 -27.500126,-27.499534 27.5,27.5 0 0 1 27.399876,-27.50013 z"
       style="mix-blend-mode:normal;fill:#fefae0;fill-opacity:1;fill-rule:nonzero;stroke-width:0.254772"
       id="path10" />
    <ellipse
       ry="20.413893"
       rx="6.0989375"
       cy="120.9707"
       cx="104.98358"
       id="path2849"
       style="fill:#fefae0;fill-opacity:1;fill-rule:nonzero;stroke-width:0.264583" />
    <path
       transform="scale(0.26458333)"
       d="M 394.94727 504.89844 A 141.73228 129.60041 0 0 0 253.60156 634.49805 A 141.73228 129.60041 0 0 0 253.60156 634.61719 L 253.91797 634.61914 L 253.60352 634.61914 L 253.60352 832.0957 L 253.60156 832.0957 A 141.73228 129.60041 0 0 0 253.60352 832.4082 L 253.60352 833.84961 L 253.61719 833.84961 A 141.73228 129.60041 0 0 0 395.33398 961.57617 A 141.73228 129.60041 0 0 0 537.05273 833.84961 L 537.05273 636.37109 L 537.05469 636.37109 A 141.73228 129.60041 0 0 0 537.06836 634.49805 A 141.73228 129.60041 0 0 0 395.33594 504.89844 A 141.73228 129.60041 0 0 0 394.94727 504.89844 z M 395.04883 560.10547 L 395.05273 560.10547 A 103.93635 99.33899 0 0 1 395.33594 560.10547 A 103.93635 99.33899 0 0 1 499.27344 659.44336 A 103.93635 99.33899 0 0 1 499.26172 660.88086 L 499.26172 812.24609 A 103.93635 99.33899 0 0 1 395.33594 910.15039 A 103.93635 99.33899 0 0 1 291.41211 812.24609 L 291.39648 812.24609 L 291.39648 810.90234 L 291.39648 659.53516 A 103.93635 99.33899 0 0 1 291.39648 659.44336 A 103.93635 99.33899 0 0 1 395.04883 560.10547 z "
       style="fill:#fefae0;fill-opacity:1;fill-rule:nonzero;stroke-width:0.800489"
       id="path2855" />
    <g
       transform="matrix(0.10791308,0.09115956,-0.11711244,0.13732531,115.95951,-1.2313628)"
       id="g2884">
      <path
         d="M 142.09546,220.62264 67.099,220.15862 a 37.499999,34.290108 0 0 0 37.50004,34.25848 37.499999,34.290108 0 0 0 37.49642,-33.79446 z"
         style="fill:#fefae0;fill-opacity:1;fill-rule:nonzero;stroke-width:0.211796"
         id="path2878" />
      <path
         d="m 104.49621,133.58763 a 37.499999,34.290108 0 0 0 -37.397206,34.29014 37.499999,34.290108 0 0 0 0,0.0316 l 74.996466,0.46402 a 37.499999,34.290108 0 0 0 0.004,-0.49569 37.499999,34.290108 0 0 0 -37.50004,-34.29013 37.499999,34.290108 0 0 0 -0.10284,0 z"
         style="fill:#fefae0;fill-opacity:1;fill-rule:nonzero;stroke-width:0.211796"
         id="path2880" />
      <rect
         y="167.90941"
         x="67.099007"
         height="52.713234"
         width="74.996452"
         id="rect2882"
         style="fill:#fefae0;fill-opacity:1;fill-rule:nonzero;stroke-width:0.253006" />
    </g>
  </g>
  <g
     inkscape:label="Layer 2"
     id="layer2"
     inkscape:groupmode="layer" />
</svg>
